<svg width="16" height="16" viewBox="0 0 16 16" fill="none" xmlns="http://www.w3.org/2000/svg">
<path d="M8.00352 4.40586C6.01602 4.40586 4.41289 6.00898 4.41289 7.99648C4.41289 9.98398 6.01602 11.5871 8.00352 11.5871C9.99102 11.5871 11.5941 9.98398 11.5941 7.99648C11.5941 6.00898 9.99102 4.40586 8.00352 4.40586ZM8.00352 10.3309C6.71914 10.3309 5.66914 9.28398 5.66914 7.99648C5.66914 6.70898 6.71602 5.66211 8.00352 5.66211C9.29102 5.66211 10.3379 6.70898 10.3379 7.99648C10.3379 9.28398 9.28789 10.3309 8.00352 10.3309ZM12.5785 4.25898C12.5785 4.72461 12.2035 5.09648 11.741 5.09648C11.2754 5.09648 10.9035 4.72148 10.9035 4.25898C10.9035 3.79648 11.2785 3.42148 11.741 3.42148C12.2035 3.42148 12.5785 3.79648 12.5785 4.25898ZM14.9566 5.10898C14.9035 3.98711 14.6473 2.99336 13.8254 2.17461C13.0066 1.35586 12.0129 1.09961 10.891 1.04336C9.73477 0.977734 6.26914 0.977734 5.11289 1.04336C3.99414 1.09648 3.00039 1.35273 2.17852 2.17148C1.35664 2.99023 1.10352 3.98398 1.04727 5.10586C0.981641 6.26211 0.981641 9.72773 1.04727 10.884C1.10039 12.0059 1.35664 12.9996 2.17852 13.8184C3.00039 14.6371 3.99102 14.8934 5.11289 14.9496C6.26914 15.0152 9.73477 15.0152 10.891 14.9496C12.0129 14.8965 13.0066 14.6402 13.8254 13.8184C14.6441 12.9996 14.9004 12.0059 14.9566 10.884C15.0223 9.72773 15.0223 6.26523 14.9566 5.10898ZM13.4629 12.1246C13.2191 12.7371 12.7473 13.209 12.1316 13.4559C11.2098 13.8215 9.02227 13.7371 8.00352 13.7371C6.98477 13.7371 4.79414 13.8184 3.87539 13.4559C3.26289 13.2121 2.79102 12.7402 2.54414 12.1246C2.17852 11.2027 2.26289 9.01523 2.26289 7.99648C2.26289 6.97773 2.18164 4.78711 2.54414 3.86836C2.78789 3.25586 3.25977 2.78398 3.87539 2.53711C4.79727 2.17148 6.98477 2.25586 8.00352 2.25586C9.02227 2.25586 11.2129 2.17461 12.1316 2.53711C12.7441 2.78086 13.216 3.25273 13.4629 3.86836C13.8285 4.79023 13.7441 6.97773 13.7441 7.99648C13.7441 9.01523 13.8285 11.2059 13.4629 12.1246Z" fill="#575C62"/>
</svg>
