<svg width="16" height="16" viewBox="0 0 16 16" fill="none" xmlns="http://www.w3.org/2000/svg">
<path d="M14.3553 4.74052C14.3655 4.88264 14.3655 5.0248 14.3655 5.16692C14.3655 9.50192 11.066 14.4969 5.03553 14.4969C3.17766 14.4969 1.45178 13.9588 0 13.0248C0.263969 13.0552 0.51775 13.0654 0.791875 13.0654C2.32484 13.0654 3.73603 12.5476 4.86294 11.6644C3.42131 11.6339 2.21319 10.6898 1.79694 9.39027C2 9.4207 2.20303 9.44102 2.41625 9.44102C2.71066 9.44102 3.00509 9.40039 3.27919 9.32936C1.77666 9.02477 0.649719 7.70498 0.649719 6.11108V6.07048C1.08625 6.31414 1.59391 6.46642 2.13194 6.4867C1.24869 5.89786 0.670031 4.8928 0.670031 3.75573C0.670031 3.14661 0.832438 2.58823 1.11672 2.10092C2.73094 4.09077 5.15734 5.39023 7.87813 5.53239C7.82738 5.28873 7.79691 5.03495 7.79691 4.78114C7.79691 2.97402 9.25884 1.50195 11.0761 1.50195C12.0203 1.50195 12.873 1.89789 13.472 2.53748C14.2131 2.39536 14.9238 2.12123 15.5533 1.74561C15.3096 2.50705 14.7918 3.14664 14.1116 3.5527C14.7715 3.48167 15.4111 3.29889 15.9999 3.04511C15.5533 3.69483 14.9949 4.27348 14.3553 4.74052Z" fill="#575C62"/>
</svg>
