<svg width="100" height="100" viewBox="0 0 100 100" fill="none" xmlns="http://www.w3.org/2000/svg">
<path d="M47.9173 25C29.2576 25 19.9277 25 14.1308 29.8815C8.33398 34.7631 8.33398 42.62 8.33398 58.3333C8.33398 74.0467 8.33398 81.9037 14.1308 86.785C19.9277 91.6667 29.2576 91.6667 47.9173 91.6667C66.5769 91.6667 75.9069 91.6667 81.704 86.785C87.5007 81.9037 87.5006 74.0467 87.5006 58.3333C87.5006 53.4592 87.5006 49.3412 87.3277 45.8333" stroke="#2F2B77" stroke-width="5" stroke-linecap="round"/>
<path d="M77.0833 8.33301L78.1579 11.2373C79.5671 15.0456 80.2717 16.9498 81.6608 18.3388C83.05 19.7279 84.9542 20.4325 88.7625 21.8417L91.6667 22.9163L88.7625 23.991C84.9542 25.4002 83.05 26.1048 81.6608 27.4939C80.2717 28.8829 79.5671 30.7871 78.1579 34.5954L77.0833 37.4997L76.0087 34.5954C74.5996 30.7871 73.895 28.8829 72.5058 27.4939C71.1167 26.1048 69.2125 25.4002 65.4042 23.991L62.5 22.9163L65.4042 21.8417C69.2125 20.4325 71.1167 19.7279 72.5058 18.3388C73.895 16.9498 74.5996 15.0456 76.0087 11.2373L77.0833 8.33301Z" stroke="#2F2B77" stroke-width="5" stroke-linecap="round"/>
<path d="M50 41.667V75.0003" stroke="#2F2B77" stroke-width="5" stroke-linecap="round"/>
<path d="M37.5 50V66.6667" stroke="#2F2B77" stroke-width="5" stroke-linecap="round"/>
<path d="M25 54.167V62.5003" stroke="#2F2B77" stroke-width="5" stroke-linecap="round"/>
<path d="M62.5 50V66.6667" stroke="#2F2B77" stroke-width="5" stroke-linecap="round"/>
<path d="M75 54.167V62.5003" stroke="#2F2B77" stroke-width="5" stroke-linecap="round"/>
</svg>
