<svg width="100" height="100" viewBox="0 0 100 100" fill="none" xmlns="http://www.w3.org/2000/svg">
<path d="M39.2762 12.7609C44.5157 9.80897 47.1356 8.33301 50.0006 8.33301C52.8656 8.33301 55.4857 9.80897 60.7252 12.7609L68.0169 16.8689C73.4556 19.9331 76.1752 21.4651 77.6711 24.0273C79.1673 26.5895 79.1673 29.7146 79.1673 35.9646V43.2013C79.1673 49.4513 79.1673 52.5763 77.6711 55.1388C76.1752 57.7009 73.4556 59.233 68.0169 62.2972L60.7252 66.4051C55.4857 69.3572 52.8656 70.833 50.0006 70.833C47.1356 70.833 44.5157 69.3572 39.2762 66.4051L31.9845 62.2972C26.5457 59.233 23.8263 57.7009 22.3302 55.1388C20.834 52.5763 20.834 49.4513 20.834 43.2013V35.9646C20.834 29.7146 20.834 26.5895 22.3302 24.0273C23.8263 21.4651 26.5457 19.9331 31.9845 16.8689L39.2762 12.7609Z" stroke="#2F2B77" stroke-width="5" stroke-linejoin="round"/>
<path d="M37.5 42.3613C37.5 42.3613 40.625 42.3612 43.75 47.9167C43.75 47.9167 53.6767 34.0278 62.5 31.25" stroke="#2F2B77" stroke-width="5" stroke-linejoin="round"/>
<path d="M70.3437 62.5L73.1362 75.8746C74.9304 84.4679 75.8275 88.7646 73.9846 90.8012C72.1421 92.8375 68.9417 91.0858 62.5412 87.5825L53.0683 82.3971C51.5558 81.5692 50.7996 81.1554 50 81.1554C49.2004 81.1554 48.4442 81.5692 46.9317 82.3971L37.4587 87.5825C31.0582 91.0858 27.858 92.8375 26.0152 90.8012C24.1725 88.7646 25.0695 84.4679 26.8638 75.8746L29.6563 62.5" stroke="#2F2B77" stroke-width="5" stroke-linejoin="round"/>
</svg>
