<svg width="40" height="40" viewBox="0 0 40 40" fill="none" xmlns="http://www.w3.org/2000/svg">
<path d="M12.5 32.5003C12.5 30.891 13.0476 29.263 14.3849 28.3677C15.9887 27.2938 17.9207 26.667 20 26.667C22.0793 26.667 24.0113 27.2938 25.6152 28.3677C26.9525 29.263 27.5 30.891 27.5 32.5003" stroke="white" stroke-width="2.5" stroke-linecap="round" stroke-linejoin="round"/>
<path d="M20.0007 22.5003C22.3018 22.5003 24.1673 20.6348 24.1673 18.3337C24.1673 16.0325 22.3018 14.167 20.0007 14.167C17.6995 14.167 15.834 16.0325 15.834 18.3337C15.834 20.6348 17.6995 22.5003 20.0007 22.5003Z" stroke="white" stroke-width="2.5" stroke-linecap="round" stroke-linejoin="round"/>
<path d="M29.166 18.333C31.0162 18.333 32.7352 18.9612 34.1617 20.037C35.3708 20.949 35.8327 22.4915 35.8327 24.006V24.1663" stroke="white" stroke-width="2.5" stroke-linecap="round" stroke-linejoin="round"/>
<path d="M29.1673 14.1667C31.0083 14.1667 32.5007 12.6743 32.5007 10.8333C32.5007 8.99238 31.0083 7.5 29.1673 7.5C27.3264 7.5 25.834 8.99238 25.834 10.8333C25.834 12.6743 27.3264 14.1667 29.1673 14.1667Z" stroke="white" stroke-width="2.5" stroke-linecap="round" stroke-linejoin="round"/>
<path d="M10.8327 18.333C8.98247 18.333 7.26345 18.9612 5.83695 20.037C4.62778 20.949 4.16602 22.4915 4.16602 24.006V24.1663" stroke="white" stroke-width="2.5" stroke-linecap="round" stroke-linejoin="round"/>
<path d="M10.8333 14.1667C12.6743 14.1667 14.1667 12.6743 14.1667 10.8333C14.1667 8.99238 12.6743 7.5 10.8333 7.5C8.99238 7.5 7.5 8.99238 7.5 10.8333C7.5 12.6743 8.99238 14.1667 10.8333 14.1667Z" stroke="white" stroke-width="2.5" stroke-linecap="round" stroke-linejoin="round"/>
</svg>
