<svg width="100" height="100" viewBox="0 0 100 100" fill="none" xmlns="http://www.w3.org/2000/svg">
<path d="M33.334 29.1715H69.7923C78.5702 29.1715 82.9594 29.1715 86.1119 31.2787C87.4769 32.191 88.649 33.3632 89.5607 34.7285C91.5823 37.7549 91.664 41.92 91.6673 50.0108V54.1787M50.0007 29.1715L47.3615 23.8913C45.1748 19.5169 43.1765 15.1138 38.3309 13.2961C36.2086 12.5 33.7841 12.5 28.9352 12.5C21.3665 12.5 17.5822 12.5 14.7426 14.0851C12.7184 15.215 11.0482 16.8857 9.91865 18.9105C8.33398 21.7509 8.33398 25.5363 8.33398 33.1071V45.8429C8.33398 65.4904 8.33398 75.3142 14.4359 81.4179C19.606 86.5896 27.446 87.3796 41.6673 87.5" stroke="#2F2B77" stroke-width="5" stroke-linecap="round"/>
<path d="M54.166 77.7776C54.166 83.1468 58.3635 87.4997 63.541 87.4997H83.2285C87.8885 87.4997 91.666 83.5822 91.666 78.7497C91.666 73.9172 87.8464 69.9997 83.1864 69.9997C83.7064 64.0176 79.0823 58.333 72.916 58.333C67.5223 58.333 63.0956 62.6276 62.6418 68.0993C57.886 68.5688 54.166 72.7226 54.166 77.7776Z" stroke="#2F2B77" stroke-width="5" stroke-linecap="round"/>
</svg>
