<svg width="60" height="60" viewBox="0 0 60 60" fill="none" xmlns="http://www.w3.org/2000/svg">
<path d="M51.2498 26.25V25C51.2498 15.5719 51.2497 10.8579 48.321 7.92893C45.392 5 40.678 5 31.2497 5H28.75C19.3221 5 14.6081 5 11.6792 7.9289C8.75023 10.8578 8.75018 15.5718 8.7501 24.9998L8.75 36.25C8.74993 44.4685 8.7499 48.578 11.0197 51.3438C11.4353 51.8503 11.8997 52.3145 12.4061 52.7303C15.1719 55 19.2812 55 27.4998 55" stroke="#2F2B77" stroke-width="3.75" stroke-linecap="round" stroke-linejoin="round"/>
<path d="M18.75 17.5H41.25" stroke="#2F2B77" stroke-width="3.75" stroke-linecap="round" stroke-linejoin="round"/>
<path d="M18.75 30H33.75" stroke="#2F2B77" stroke-width="3.75" stroke-linecap="round" stroke-linejoin="round"/>
<path d="M51.25 50V42.5C51.25 38.9265 47.8923 35 43.75 35C39.6077 35 36.25 38.9265 36.25 42.5V51.25C36.25 53.321 37.929 55 40 55C42.071 55 43.75 53.321 43.75 51.25V42.5" stroke="#2F2B77" stroke-width="3.75" stroke-linecap="round" stroke-linejoin="round"/>
</svg>
