<svg width="100" height="100" viewBox="0 0 100 100" fill="none" xmlns="http://www.w3.org/2000/svg">
<path d="M66.666 14.1023V8.33301M81.7935 18.1817L85.8664 14.1023M85.906 33.333H91.666" stroke="#2F2B77" stroke-width="5" stroke-linecap="round" stroke-linejoin="round"/>
<path d="M91.6673 49.9997C91.6673 69.6413 91.6673 79.4626 85.5652 85.5643C79.4636 91.6663 69.6423 91.6663 50.0007 91.6663C30.3588 91.6663 20.5379 91.6663 14.4359 85.5643C8.33398 79.4626 8.33398 69.6413 8.33398 49.9997C8.33398 30.3578 8.33398 20.5369 14.4359 14.435C20.5379 8.33301 30.3588 8.33301 50.0007 8.33301" stroke="#2F2B77" stroke-width="5" stroke-linecap="round" stroke-linejoin="round"/>
<path d="M49.383 33.3613H62.8085C64.3872 33.3613 65.6668 34.6735 65.6668 36.2921V50.147M11.5 58.1591C20.9718 59.2666 44.7397 56.3066 62.0485 37.0396" stroke="#2F2B77" stroke-width="5" stroke-linecap="round" stroke-linejoin="round"/>
</svg>
