<svg width="60" height="60" viewBox="0 0 60 60" fill="none" xmlns="http://www.w3.org/2000/svg">
<path d="M47.4762 47.5H47.5M47.4762 47.5C45.9195 49.0438 43.0983 48.6592 41.1198 48.6592C38.6913 48.6592 37.5218 49.1343 35.7885 50.8675C34.3128 52.3435 32.3343 55 30 55C27.6657 55 25.6873 52.3435 24.2114 50.8675C22.4782 49.1343 21.3087 48.6592 18.8802 48.6592C16.9017 48.6592 14.0805 49.0438 12.5237 47.5C10.9545 45.944 11.3407 43.111 11.3407 41.1198C11.3407 38.6035 10.7904 37.4465 8.99845 35.6545C6.33285 32.989 5.00005 31.656 5 30C5.00002 28.3437 6.3328 27.011 8.99837 24.3454C10.598 22.7458 11.3407 21.1607 11.3407 18.8802C11.3407 16.9016 10.9562 14.0803 12.5 12.5236C14.0561 10.9544 16.889 11.3407 18.8802 11.3407C21.1607 11.3407 22.7458 10.598 24.3454 8.99843C27.011 6.3328 28.3437 5 30 5C31.6563 5 32.989 6.3328 35.6545 8.99843C37.2537 10.5977 38.8388 11.3407 41.1198 11.3407C43.0983 11.3407 45.9198 10.9562 47.4765 12.5C49.0455 14.0561 48.6592 16.889 48.6592 18.8802C48.6592 21.3965 49.2098 22.5534 51.0015 24.3454C53.6673 27.011 55 28.3437 55 30C55 31.656 53.6673 32.989 51.0015 35.6545C49.2095 37.4465 48.6592 38.6035 48.6592 41.1198C48.6592 43.111 49.0455 45.944 47.4762 47.5Z" stroke="#2F2B77" stroke-width="3.75"/>
<path d="M22.5 32.2323L27 36.25L37.5 23.75" stroke="#2F2B77" stroke-width="3.75"/>
</svg>
