<svg width="100" height="100" viewBox="0 0 100 100" fill="none" xmlns="http://www.w3.org/2000/svg">
<path d="M40.5309 8.33301C26.9426 8.33301 20.1484 8.33301 15.4301 11.6573C14.0782 12.6098 12.8781 13.7393 11.8661 15.0117C8.33398 19.4525 8.33398 25.847 8.33398 38.6361V49.2422C8.33398 61.5888 8.33398 67.7618 10.2879 72.6922C13.429 80.6188 20.0721 86.8709 28.4938 89.8272C33.7324 91.6663 40.2915 91.6663 53.4098 91.6663C60.9061 91.6663 64.654 91.6664 67.6473 90.6155C72.4598 88.9264 76.2557 85.3534 78.0507 80.8243C79.1673 78.0068 79.1673 74.4793 79.1673 67.4238V64.583" stroke="#2F2B77" stroke-width="5" stroke-linecap="round" stroke-linejoin="round"/>
<path d="M62.5 31.2503C62.5 31.2503 64.5833 31.2503 66.6667 35.417C66.6667 35.417 73.2842 25.0003 79.1667 22.917" stroke="#2F2B77" stroke-width="5" stroke-linecap="round" stroke-linejoin="round"/>
<path d="M91.6667 29.1663C91.6667 40.6723 82.3392 49.9997 70.8333 49.9997C59.3275 49.9997 50 40.6723 50 29.1663C50 17.6604 59.3275 8.33301 70.8333 8.33301C82.3392 8.33301 91.6667 17.6604 91.6667 29.1663Z" stroke="#2F2B77" stroke-width="5" stroke-linecap="round" stroke-linejoin="round"/>
<path d="M8.33398 50C8.33398 57.6704 14.5522 63.8887 22.2229 63.8887C24.997 63.8887 28.2675 63.4029 30.9647 64.1254C33.3612 64.7675 35.233 66.6396 35.8752 69.0358C36.5979 71.7333 36.1118 75.0038 36.1118 77.7779C36.1118 85.4483 42.3302 91.6667 50.0007 91.6667" stroke="#2F2B77" stroke-width="5" stroke-linecap="round" stroke-linejoin="round"/>
</svg>
