<svg width="56" height="56" viewBox="0 0 56 56" fill="none" xmlns="http://www.w3.org/2000/svg">
<path d="M43.6539 8.15514C39.2385 5.95826 33.8354 4.66602 28 4.66602C22.1646 4.66602 16.7615 5.95826 12.346 8.15514C10.1808 9.23249 9.09811 9.77116 8.04907 11.4648C7 13.1585 7 14.7985 7 18.0783V26.2192C7 39.4805 17.5988 46.8536 23.737 50.0115C25.449 50.8924 26.3048 51.3327 28 51.3327C29.6952 51.3327 30.551 50.8924 32.2628 50.0115C38.4011 46.8536 49 39.4805 49 26.2192V18.0783C49 14.7985 49 13.1586 47.9509 11.4648C46.9019 9.77114 45.8192 9.23249 43.6539 8.15514Z" fill="#22A06B" stroke="#1D6E4F" stroke-width="3.5" stroke-linecap="round" stroke-linejoin="round"/>
<path d="M19.3652 26.5997L25.8986 33.1331L38.9652 20.0664" stroke="white" stroke-width="5.6" stroke-linecap="round" stroke-linejoin="round"/>
</svg>
