<svg width="48" height="48" viewBox="0 0 48 48" fill="none" xmlns="http://www.w3.org/2000/svg">
<path d="M28 4H20C13.4415 4 10.1623 4 7.83782 5.62764C6.97782 6.2298 6.2298 6.97782 5.62764 7.83782C4 10.1623 4 13.4415 4 20C4 26.5584 4 29.8376 5.62764 32.1622C6.2298 33.0222 6.97782 33.7702 7.83782 34.3724C10.1623 36 13.4415 36 20 36H28C34.5584 36 37.8376 36 40.1622 34.3724C41.0222 33.7702 41.7702 33.0222 42.3724 32.1622C44 29.8376 44 26.5584 44 20" stroke="#000000" stroke-width="3" stroke-linecap="round"/>
<path d="M37.6591 5.50836C38.2553 4.86246 38.5533 4.53952 38.8701 4.35114C39.6343 3.8966 40.5753 3.88248 41.3523 4.31386C41.6745 4.49264 41.9817 4.8065 42.5961 5.4342C43.2107 6.06192 43.5179 6.37578 43.6929 6.70474C44.1151 7.4985 44.1013 8.45984 43.6563 9.24056C43.4719 9.56412 43.1559 9.86862 42.5235 10.4776L35.0007 17.7234C33.8025 18.8775 33.2033 19.4545 32.4545 19.747C31.7057 20.0394 30.8827 20.018 29.2363 19.9749L29.0125 19.969C28.5113 19.9559 28.2607 19.9493 28.1149 19.784C27.9693 19.6187 27.9891 19.3635 28.0289 18.8529L28.0505 18.5757C28.1625 17.1388 28.2185 16.4204 28.4991 15.7746C28.7797 15.1288 29.2637 14.6044 30.2317 13.5556L37.6591 5.50836Z" stroke="#000000" stroke-width="3" stroke-linecap="round"/>
<path d="M29.3115 44L28.4739 43.1622C26.5853 41.2738 26.1171 38.3888 27.3115 36" stroke="#000000" stroke-width="3" stroke-linecap="round"/>
<path d="M18 44L18.8377 43.1622C20.7262 41.2738 21.1944 38.3888 20 36" stroke="#000000" stroke-width="3" stroke-linecap="round"/>
<path d="M14 44H34" stroke="#000000" stroke-width="3" stroke-linecap="round"/>
<path d="M16 20H30" stroke="#000000" stroke-width="3" stroke-linecap="round"/>
</svg>
