<svg width="32" height="32" viewBox="0 0 32 32" fill="none" xmlns="http://www.w3.org/2000/svg">
<path d="M16.2933 2.66699H15.7067C14.9994 2.66699 14.3211 2.94794 13.8211 3.44804C13.321 3.94814 13.04 4.62641 13.04 5.33366V5.57366C13.0395 6.04129 12.9161 6.50058 12.6821 6.90544C12.448 7.3103 12.1117 7.64651 11.7067 7.88033L11.1333 8.21366C10.728 8.44771 10.2681 8.57092 9.8 8.57092C9.3319 8.57092 8.87205 8.44771 8.46667 8.21366L8.26667 8.10699C7.65476 7.75401 6.92779 7.65825 6.24534 7.84074C5.56289 8.02322 4.98074 8.46904 4.62667 9.08033L4.33334 9.58699C3.98035 10.1989 3.88459 10.9259 4.06708 11.6083C4.24957 12.2908 4.69538 12.8729 5.30667 13.227L5.50667 13.3603C5.9097 13.593 6.24483 13.9271 6.47874 14.3294C6.71265 14.7318 6.83719 15.1883 6.84 15.6537V16.3337C6.84187 16.8036 6.71954 17.2656 6.48539 17.673C6.25125 18.0804 5.91361 18.4187 5.50667 18.6537L5.30667 18.7737C4.69538 19.1277 4.24957 19.7099 4.06708 20.3923C3.88459 21.0748 3.98035 21.8017 4.33334 22.4137L4.62667 22.9203C4.98074 23.5316 5.56289 23.9774 6.24534 24.1599C6.92779 24.3424 7.65476 24.2466 8.26667 23.8937L8.46667 23.787C8.87205 23.5529 9.3319 23.4297 9.8 23.4297C10.2681 23.4297 10.728 23.5529 11.1333 23.787L11.7067 24.1203C12.1117 24.3541 12.448 24.6903 12.6821 25.0952C12.9161 25.5001 13.0395 25.9594 13.04 26.427V26.667C13.04 27.3742 13.321 28.0525 13.8211 28.5526C14.3211 29.0527 14.9994 29.3337 15.7067 29.3337H16.2933C17.0006 29.3337 17.6789 29.0527 18.179 28.5526C18.679 28.0525 18.96 27.3742 18.96 26.667V26.427C18.9605 25.9594 19.0839 25.5001 19.318 25.0952C19.552 24.6903 19.8884 24.3541 20.2933 24.1203L20.8667 23.787C21.2721 23.5529 21.7319 23.4297 22.2 23.4297C22.6681 23.4297 23.1279 23.5529 23.5333 23.787L23.7333 23.8937C24.3452 24.2466 25.0722 24.3424 25.7547 24.1599C26.4371 23.9774 27.0193 23.5316 27.3733 22.9203L27.6667 22.4003C28.0197 21.7884 28.1154 21.0614 27.9329 20.379C27.7504 19.6965 27.3046 19.1144 26.6933 18.7603L26.4933 18.6537C26.0864 18.4187 25.7488 18.0804 25.5146 17.673C25.2805 17.2656 25.1581 16.8036 25.16 16.3337V15.667C25.1581 15.1971 25.2805 14.7351 25.5146 14.3276C25.7488 13.9202 26.0864 13.5819 26.4933 13.347L26.6933 13.227C27.3046 12.8729 27.7504 12.2908 27.9329 11.6083C28.1154 10.9259 28.0197 10.1989 27.6667 9.58699L27.3733 9.08033C27.0193 8.46904 26.4371 8.02322 25.7547 7.84074C25.0722 7.65825 24.3452 7.75401 23.7333 8.10699L23.5333 8.21366C23.1279 8.44771 22.6681 8.57092 22.2 8.57092C21.7319 8.57092 21.2721 8.44771 20.8667 8.21366L20.2933 7.88033C19.8884 7.64651 19.552 7.3103 19.318 6.90544C19.0839 6.50058 18.9605 6.04129 18.96 5.57366V5.33366C18.96 4.62641 18.679 3.94814 18.179 3.44804C17.6789 2.94794 17.0006 2.66699 16.2933 2.66699Z" stroke="#000000" stroke-width="2" stroke-linecap="round" stroke-linejoin="round"/>
<path d="M16 20C18.2091 20 20 18.2091 20 16C20 13.7909 18.2091 12 16 12C13.7909 12 12 13.7909 12 16C12 18.2091 13.7909 20 16 20Z" stroke="#000000" stroke-width="2" stroke-linecap="round" stroke-linejoin="round"/>
</svg>
