<svg width="80" height="80" viewBox="0 0 80 80" fill="none" xmlns="http://www.w3.org/2000/svg">
<path d="M50.6673 64V58.6667C50.6673 55.8377 49.5435 53.1246 47.5431 51.1242C45.5427 49.1238 42.8296 48 40.0007 48H24.0007C21.1717 48 18.4586 49.1238 16.4582 51.1242C14.4578 53.1246 13.334 55.8377 13.334 58.6667V64" stroke="#2F2B77" stroke-width="4" stroke-linecap="round" stroke-linejoin="round"/>
<path d="M32.0007 37.3333C37.8917 37.3333 42.6673 32.5577 42.6673 26.6667C42.6673 20.7756 37.8917 16 32.0007 16C26.1096 16 21.334 20.7756 21.334 26.6667C21.334 32.5577 26.1096 37.3333 32.0007 37.3333Z" stroke="#2F2B77" stroke-width="4" stroke-linecap="round" stroke-linejoin="round"/>
<path d="M66.666 64V58.6667C66.6643 56.3033 65.8776 54.0074 64.4297 52.1395C62.9817 50.2716 60.9544 48.9375 58.666 48.3467" stroke="#2F2B77" stroke-width="4" stroke-linecap="round" stroke-linejoin="round"/>
<path d="M50.666 16.3467C52.9605 16.9341 54.9941 18.2685 56.4464 20.1395C57.8987 22.0105 58.6869 24.3116 58.6869 26.68C58.6869 29.0485 57.8987 31.3496 56.4464 33.2205C54.9941 35.0915 52.9605 36.4259 50.666 37.0133" stroke="#2F2B77" stroke-width="4" stroke-linecap="round" stroke-linejoin="round"/>
</svg>
