<svg width="52" height="52" viewBox="0 0 52 52" fill="none" xmlns="http://www.w3.org/2000/svg">
<path d="M18.1898 5.52968C21.3854 3.54967 24.1746 4.34759 25.8501 5.61858C26.5371 6.1397 26.8805 6.40029 27.0827 6.40029C27.2848 6.40029 27.6283 6.1397 28.3153 5.61858C29.9908 4.34759 32.7799 3.54967 35.9756 5.52968C40.1696 8.12821 41.1186 16.7009 31.4448 23.9334C29.6023 25.311 28.681 25.9996 27.0827 25.9996C25.4843 25.9996 24.5631 25.311 22.7205 23.9334C13.0469 16.7009 13.9959 8.12821 18.1898 5.52968Z" stroke="#2F2B77" stroke-width="3.25" stroke-linecap="round"/>
<path d="M8.66602 30.333H13.8548C14.4921 30.333 15.1207 30.4767 15.6907 30.7525L20.115 32.8931C20.685 33.169 21.3136 33.3124 21.9509 33.3124H24.2099C26.3948 33.3124 28.166 35.0264 28.166 37.1407C28.166 37.226 28.1075 37.3012 28.0226 37.3246L22.5173 38.8469C21.5297 39.1199 20.4722 39.0248 19.5535 38.5802L14.8239 36.292" stroke="#2F2B77" stroke-width="3.25" stroke-linecap="round"/>
<path d="M28.166 35.7501L38.1171 32.6927C39.8812 32.143 41.7881 32.7947 42.8931 34.325C43.6921 35.4313 43.3667 37.0158 42.2028 37.6875L25.919 47.0828C24.8833 47.6804 23.6613 47.8262 22.5223 47.4882L8.66602 43.3765" stroke="#2F2B77" stroke-width="3.25" stroke-linecap="round"/>
</svg>
