<svg width="100" height="100" viewBox="0 0 100 100" fill="none" xmlns="http://www.w3.org/2000/svg">
<path d="M34.981 10.6333C41.1264 6.82561 46.4902 8.36007 49.7123 10.8043C51.0335 11.8064 51.6939 12.3076 52.0827 12.3076C52.4714 12.3076 53.1319 11.8064 54.4531 10.8043C57.6752 8.36007 63.0389 6.82561 69.1844 10.6333C77.2498 15.6305 79.0748 32.1164 60.4714 46.0252C56.9281 48.6743 55.1564 49.9985 52.0827 49.9985C49.0089 49.9985 47.2373 48.6743 43.6939 46.0252C25.0908 32.1164 26.9158 15.6305 34.981 10.6333Z" stroke="#2F2B77" stroke-width="4" stroke-linecap="round"/>
<path d="M16.666 58.333H26.6444C27.8701 58.333 29.0788 58.6093 30.1751 59.1397L38.6833 63.2563C39.7795 63.7868 40.9883 64.0626 42.2139 64.0626H46.5581C50.7598 64.0626 54.166 67.3588 54.166 71.4247C54.166 71.5888 54.0535 71.7334 53.8902 71.7784L43.3031 74.7059C41.4038 75.2309 39.3702 75.048 37.6035 74.193L28.5081 69.7926" stroke="#2F2B77" stroke-width="4" stroke-linecap="round"/>
<path d="M54.166 68.7501L73.3027 62.8705C76.6952 61.8134 80.3623 63.0668 82.4873 66.0097C84.0239 68.1372 83.3981 71.1843 81.1598 72.4759L49.8448 90.5439C47.8531 91.693 45.5031 91.9735 43.3127 91.3235L16.666 83.4164" stroke="#2F2B77" stroke-width="4" stroke-linecap="round"/>
</svg>
