<svg width="52" height="52" viewBox="0 0 52 52" fill="none" xmlns="http://www.w3.org/2000/svg">
<path d="M32.457 15.2002C32.457 15.2002 33.5404 16.2835 34.6237 18.4502C34.6237 18.4502 38.0648 13.0335 41.1237 11.9502" stroke="#2F2B77" stroke-width="3" stroke-linecap="round" stroke-linejoin="round"/>
<path d="M21.6562 4.37971C16.2428 4.15052 12.0606 4.77413 12.0606 4.77413C9.41974 4.96295 4.35881 6.44348 4.35886 15.09C4.3589 23.663 4.30287 34.232 4.35886 38.4453C4.35886 41.0195 5.9527 47.024 11.4694 47.3457C18.1749 47.737 30.2533 47.8202 35.7949 47.3457C37.2785 47.2621 42.2174 46.0975 42.8425 40.7239C43.4901 35.1571 43.3612 31.2883 43.3612 30.3675" stroke="#2F2B77" stroke-width="3" stroke-linecap="round" stroke-linejoin="round"/>
<path d="M47.666 15.2005C47.666 21.1836 42.8111 26.0339 36.8222 26.0339C30.8334 26.0339 25.9785 21.1836 25.9785 15.2005C25.9785 9.21744 30.8334 4.36719 36.8222 4.36719C42.8111 4.36719 47.666 9.21744 47.666 15.2005Z" stroke="#2F2B77" stroke-width="3" stroke-linecap="round" stroke-linejoin="round"/>
<path d="M15.125 28.2002H23.7916" stroke="#2F2B77" stroke-width="3" stroke-linecap="round" stroke-linejoin="round"/>
<path d="M15.125 36.8672H32.4583" stroke="#2F2B77" stroke-width="3" stroke-linecap="round" stroke-linejoin="round"/>
</svg>
