<svg width="80" height="80" viewBox="0 0 80 80" fill="none" xmlns="http://www.w3.org/2000/svg">
<path d="M68.334 52.7587C59.9957 72.5193 32.8809 78.2777 17.3387 62.8797C2.09893 47.7817 6.81708 20.4288 26.8557 11.666" stroke="#2F2B77" stroke-width="4" stroke-linecap="round"/>
<path d="M58.9443 41.6673C65.2366 41.6673 68.3826 41.6673 70.4143 38.8507C70.4903 38.7453 70.6167 38.5563 70.6847 38.446C72.5097 35.491 71.569 33.2207 69.6883 28.6799C67.9826 24.5624 65.483 20.8212 62.3317 17.6698C59.18 14.5184 55.439 12.0185 51.3213 10.313C46.7807 8.43219 44.5103 7.49176 41.5553 9.31656C41.445 9.38476 41.256 9.51096 41.1507 9.58689C38.334 11.6187 38.334 14.7647 38.334 21.0569V28.0923C38.334 34.4917 38.334 37.6913 40.322 39.6793C42.31 41.6673 45.5097 41.6673 51.909 41.6673H58.9443Z" stroke="#2F2B77" stroke-width="4"/>
</svg>
