<svg width="20" height="20" viewBox="0 0 20 20" fill="none" xmlns="http://www.w3.org/2000/svg">
<path fill-rule="evenodd" clip-rule="evenodd" d="M10.0002 3.33301C10.4604 3.33301 10.8335 3.7061 10.8335 4.16634V9.16634H15.8335C16.2937 9.16634 16.6668 9.53944 16.6668 9.99967C16.6668 10.4599 16.2937 10.833 15.8335 10.833H10.8335V15.833C10.8335 16.2932 10.4604 16.6663 10.0002 16.6663C9.53993 16.6663 9.16683 16.2932 9.16683 15.833V10.833H4.16683C3.70659 10.833 3.3335 10.4599 3.3335 9.99967C3.3335 9.53944 3.70659 9.16634 4.16683 9.16634H9.16683V4.16634C9.16683 3.7061 9.53993 3.33301 10.0002 3.33301Z" fill="#5851BF"/>
</svg>
