<svg width="24" height="24" viewBox="0 0 24 24" fill="none" xmlns="http://www.w3.org/2000/svg">
<path d="M19.998 10C19.998 14.993 14.459 20.193 12.599 21.799C12.4258 21.9293 12.2148 21.9998 11.998 21.9998C11.7812 21.9998 11.5703 21.9293 11.397 21.799C9.53705 20.193 3.99805 14.993 3.99805 10C3.99805 7.87827 4.8409 5.84344 6.34119 4.34315C7.84148 2.84285 9.87631 2 11.998 2C14.1198 2 16.1546 2.84285 17.6549 4.34315C19.1552 5.84344 19.998 7.87827 19.998 10Z" stroke="#2F2B77" stroke-width="1.33333" stroke-linecap="round" stroke-linejoin="round"/>
<path d="M12 13C13.6569 13 15 11.6569 15 10C15 8.34315 13.6569 7 12 7C10.3431 7 9 8.34315 9 10C9 11.6569 10.3431 13 12 13Z" stroke="#2F2B77" stroke-width="1.33333" stroke-linecap="round" stroke-linejoin="round"/>
</svg>
