<svg width="32" height="32" viewBox="0 0 32 32" fill="none" xmlns="http://www.w3.org/2000/svg">
<path fill-rule="evenodd" clip-rule="evenodd" d="M2.6665 8.00033C2.6665 7.26395 3.26346 6.66699 3.99984 6.66699H27.9998C28.7362 6.66699 29.3332 7.26395 29.3332 8.00033C29.3332 8.73671 28.7362 9.33366 27.9998 9.33366H3.99984C3.26346 9.33366 2.6665 8.73671 2.6665 8.00033ZM2.6665 16.0003C2.6665 15.2639 3.26346 14.667 3.99984 14.667H27.9998C28.7362 14.667 29.3332 15.2639 29.3332 16.0003C29.3332 16.7367 28.7362 17.3337 27.9998 17.3337H3.99984C3.26346 17.3337 2.6665 16.7367 2.6665 16.0003ZM2.6665 24.0003C2.6665 23.2639 3.26346 22.667 3.99984 22.667H27.9998C28.7362 22.667 29.3332 23.2639 29.3332 24.0003C29.3332 24.7367 28.7362 25.3337 27.9998 25.3337H3.99984C3.26346 25.3337 2.6665 24.7367 2.6665 24.0003Z" fill="#000000"/>
</svg>
