<svg width="106" height="106" viewBox="0 0 106 106" fill="none" xmlns="http://www.w3.org/2000/svg">
<rect width="106" height="106" rx="53" fill="url(#paint0_linear_845_14627)"/>
<path fill-rule="evenodd" clip-rule="evenodd" d="M61.5477 33.805C57.4112 31.9619 52.7898 31.5053 48.3727 32.5033C43.9555 33.5013 39.9793 35.9004 37.037 39.3429C34.0948 42.7853 32.3441 47.0866 32.0462 51.6053C31.7482 56.1239 32.9189 60.6179 35.3837 64.4168C37.8484 68.2158 41.4752 71.1163 45.723 72.6856C49.9709 74.255 54.6123 74.4092 58.9549 73.1252C63.2976 71.8412 67.1088 69.1879 69.8203 65.5608C72.5317 61.9338 73.9981 57.5275 74.0007 52.999V50.8537C74.0007 49.565 75.0453 48.5203 76.334 48.5203C77.6227 48.5203 78.6673 49.565 78.6673 50.8537V53.0003C78.6642 58.5352 76.8719 63.922 73.5579 68.355C70.2439 72.788 65.5857 76.031 60.2781 77.6003C54.9704 79.1697 49.2976 78.9812 44.1058 77.0631C38.914 75.145 34.4813 71.6 31.4688 66.9568C28.4563 62.3136 27.0254 56.821 27.3896 51.2982C27.7538 45.7754 29.8935 40.5182 33.4896 36.3108C37.0857 32.1034 41.9455 29.1712 47.3442 27.9514C52.7429 26.7316 58.3913 27.2897 63.447 29.5423C64.6241 30.0668 65.1532 31.4462 64.6287 32.6233C64.1042 33.8004 62.7248 34.3295 61.5477 33.805ZM77.9831 32.6829C78.8948 33.5937 78.8955 35.0711 77.9847 35.9828L54.6514 59.3394C54.2139 59.7774 53.6203 60.0235 53.0012 60.0237C52.3822 60.0238 51.7885 59.778 51.3507 59.3403L44.3507 52.3403C43.4395 51.429 43.4395 49.9516 44.3507 49.0404C45.262 48.1292 46.7394 48.1292 47.6506 49.0404L52.9998 54.3897L74.6833 32.6846C75.594 31.7729 77.0714 31.7722 77.9831 32.6829Z" fill="white"/>
<defs>
<linearGradient id="paint0_linear_845_14627" x1="0" y1="0" x2="106" y2="106" gradientUnits="userSpaceOnUse">
<stop stop-color="#5353EE"/>
<stop offset="1" stop-color="#F7B6B6"/>
</linearGradient>
</defs>
</svg>
