<svg width="100" height="100" viewBox="0 0 100 100" fill="none" xmlns="http://www.w3.org/2000/svg">
<path d="M91.6673 49.9997C91.6673 26.9878 73.0123 8.33301 50.0006 8.33301C26.9888 8.33301 8.33398 26.9878 8.33398 49.9997C8.33398 68.4547 20.3324 84.1076 36.9542 89.583M37.5006 58.333L50.0006 49.9997V27.7789" stroke="#2F2B77" stroke-width="4" stroke-linecap="round" stroke-linejoin="round"/>
<path d="M54.166 66.667H62.4993C64.8006 66.667 66.666 68.5324 66.666 70.8337V75.0003C66.666 77.3016 64.8006 79.167 62.4993 79.167H58.3327C56.0314 79.167 54.166 81.0324 54.166 83.3337V87.5003C54.166 89.8016 56.0314 91.667 58.3327 91.667H66.666" stroke="#2F2B77" stroke-width="4" stroke-linecap="round" stroke-linejoin="round"/>
<path d="M91.666 66.667V79.167M91.666 79.167H83.3327C81.0314 79.167 79.166 77.3016 79.166 75.0003V66.667M91.666 79.167V91.667" stroke="#2F2B77" stroke-width="4" stroke-linecap="round" stroke-linejoin="round"/>
</svg>
