<svg width="100" height="100" viewBox="0 0 100 100" fill="none" xmlns="http://www.w3.org/2000/svg">
<path d="M66.6673 8.33301V24.9997M33.334 8.33301V24.9997" stroke="#2F2B77" stroke-width="4" stroke-linecap="round" stroke-linejoin="round"/>
<path d="M54.1667 16.667H45.8333C30.1198 16.667 22.2631 16.667 17.3815 21.5485C12.5 26.4301 12.5 34.2868 12.5 50.0003V58.3337C12.5 74.047 12.5 81.9041 17.3815 86.7853C22.2631 91.667 30.1198 91.667 45.8333 91.667H54.1667C69.88 91.667 77.7371 91.667 82.6183 86.7853C87.5 81.9041 87.5 74.047 87.5 58.3337V50.0003C87.5 34.2868 87.5 26.4301 82.6183 21.5485C77.7371 16.667 69.88 16.667 54.1667 16.667Z" stroke="#2F2B77" stroke-width="4" stroke-linecap="round" stroke-linejoin="round"/>
<path d="M12.5 41.667H87.5" stroke="#2F2B77" stroke-width="4" stroke-linecap="round" stroke-linejoin="round"/>
<path d="M37.5 68.75C37.5 68.75 43.75 70.8333 45.8333 77.0833C45.8333 77.0833 54.9021 60.4167 66.6667 56.25" stroke="#2F2B77" stroke-width="4" stroke-linecap="round" stroke-linejoin="round"/>
</svg>
