<svg width="100" height="100" viewBox="0 0 100 100" fill="none" xmlns="http://www.w3.org/2000/svg">
<path d="M60.4167 31.2503C60.4167 19.7444 51.0892 10.417 39.5833 10.417C28.0774 10.417 18.75 19.7444 18.75 31.2503C18.75 42.7562 28.0774 52.0837 39.5833 52.0837C51.0892 52.0837 60.4167 42.7562 60.4167 31.2503Z" stroke="#2F2B77" stroke-width="4" stroke-linecap="round" stroke-linejoin="round"/>
<path d="M10.416 81.2497C10.416 65.1413 23.4744 52.083 39.5827 52.083C44.056 52.083 48.2939 53.0901 52.0827 54.8897" stroke="#2F2B77" stroke-width="4" stroke-linecap="round" stroke-linejoin="round"/>
<path d="M72.9167 89.5837C72.9167 89.5837 89.5833 81.8632 89.5833 69.3291C89.5833 64.407 86.0746 60.417 81.25 60.417C77.3025 60.417 74.6712 62.1328 72.9167 65.5641C71.1621 62.1328 68.5308 60.417 64.5833 60.417C59.7587 60.417 56.25 64.407 56.25 69.3291C56.25 81.8632 72.9167 89.5837 72.9167 89.5837Z" stroke="#2F2B77" stroke-width="4" stroke-linecap="round" stroke-linejoin="round"/>
</svg>
