<svg width="100" height="100" viewBox="0 0 100 100" fill="none" xmlns="http://www.w3.org/2000/svg">
<path d="M91.5177 18.7753C91.5177 18.7753 92.2514 11.3389 90.4556 9.54333M90.4556 9.54333C88.6493 7.73712 81.2248 8.48758 81.2248 8.48758M90.4556 9.54333L79.166 20.8329" stroke="#2F2B77" stroke-width="4" stroke-linecap="round" stroke-linejoin="round"/>
<path d="M91.5177 81.2245C91.5177 81.2245 92.2514 88.6607 90.4556 90.4566M90.4556 90.4566C88.6493 92.2628 81.2248 91.5124 81.2248 91.5124M90.4556 90.4566L79.166 79.167" stroke="#2F2B77" stroke-width="4" stroke-linecap="round" stroke-linejoin="round"/>
<path d="M9.54431 9.54329L20.834 20.8329M9.54431 9.54329C11.3505 7.73713 18.7754 8.48759 18.7754 8.48759M9.54431 9.54329C7.74868 11.3389 8.48235 18.7753 8.48235 18.7753" stroke="#2F2B77" stroke-width="4" stroke-linecap="round" stroke-linejoin="round"/>
<path d="M9.54431 90.4566L20.834 79.167M9.54431 90.4566C11.3505 92.2628 18.7754 91.5124 18.7754 91.5124M9.54431 90.4566C7.74868 88.6612 8.48235 81.2249 8.48235 81.2249" stroke="#2F2B77" stroke-width="4" stroke-linecap="round" stroke-linejoin="round"/>
<path d="M79.1673 49.9997C79.1673 66.108 66.109 79.1663 50.0006 79.1663C33.8924 79.1663 20.834 66.108 20.834 49.9997C20.834 33.8914 33.8924 20.833 50.0006 20.833C66.109 20.833 79.1673 33.8914 79.1673 49.9997Z" stroke="#2F2B77" stroke-width="4" stroke-linecap="round" stroke-linejoin="round"/>
<path d="M49.641 38.755C45.0385 38.755 41.666 41.4306 41.666 44.5359C41.666 47.6409 43.8406 49.5826 49.9993 49.5826C56.7835 49.5826 58.3327 52.6759 58.3327 55.7809C58.3327 58.8863 55.3673 61.3388 49.641 61.3388M49.641 38.755C53.2693 38.755 55.1873 40.0252 56.7018 41.7351M49.641 38.755V35.2373M49.641 61.3388C46.0127 61.3388 44.6019 60.6222 42.6035 58.8138M49.641 61.3388V64.6197" stroke="#2F2B77" stroke-width="4" stroke-linecap="round" stroke-linejoin="round"/>
</svg>
