<svg width="98" height="41" viewBox="0 0 98 41" fill="none" xmlns="http://www.w3.org/2000/svg">
<path d="M4.39216 3.33876H93.6078C94.2143 3.33876 94.7059 3.83703 94.7059 4.45168V28.3795H98V4.45168C98 1.99309 96.0336 0 93.6078 0H4.39216C1.96644 0 0 1.99309 0 4.45168V36.4482C0 38.9068 1.96644 40.8998 4.39216 40.8998H25.2549V37.5611H4.39216C3.78573 37.5611 3.29412 37.0628 3.29412 36.4482V4.45168C3.29412 3.83703 3.78573 3.33876 4.39216 3.33876Z" fill="white"/>
<path d="M30.9537 40.8998V33.1317H32.6996L35.1373 38.9077L37.5749 33.1317H39.3098V40.8998H37.7726V35.8472L35.7192 40.8998H34.5553L32.491 35.8472V40.8998H30.9537Z" fill="white"/>
<path d="M40.4344 37.7948C40.4344 35.8694 41.6642 34.6341 43.2124 34.6341C44.1896 34.6341 44.8594 35.1015 45.2218 35.6135V34.7343H46.77V40.8998H45.2218V39.9984C44.8594 40.5326 44.1677 41 43.2014 41C41.6642 41 40.4344 39.7201 40.4344 37.7948ZM45.2218 37.817C45.2218 36.6485 44.4532 36.003 43.6077 36.003C42.7842 36.003 42.0045 36.6262 42.0045 37.7948C42.0045 38.9634 42.7842 39.6311 43.6077 39.6311C44.4532 39.6311 45.2218 38.9856 45.2218 37.817Z" fill="white"/>
<path d="M52.993 39.1414C52.993 40.1987 52.0816 41 50.5993 41C49.073 41 48.0079 40.0985 47.942 38.9522H49.4903C49.5452 39.4197 49.9734 39.7758 50.5883 39.7758C51.1922 39.7758 51.5216 39.4976 51.5216 39.1414C51.5216 38.0396 48.0848 38.7408 48.0848 36.4815C48.0848 35.4577 48.9852 34.6341 50.4895 34.6341C51.9608 34.6341 52.8503 35.4465 52.9381 36.6707H51.4667C51.4228 36.1922 51.0495 35.8694 50.4456 35.8694C49.8746 35.8694 49.5781 36.1031 49.5781 36.4593C49.5781 37.5833 52.9491 36.8822 52.993 39.1414Z" fill="white"/>
<path d="M54.4965 38.9856V36.0141H53.7718V34.7343H54.4965V33.2096H56.0447V34.7343H57.4063V36.0141H56.0447V38.9967C56.0447 39.4085 56.2094 39.5866 56.6925 39.5866H57.4063V40.8998H56.44C55.2761 40.8998 54.4965 40.399 54.4965 38.9856Z" fill="white"/>
<path d="M61.1253 35.914C60.3896 35.914 59.8076 36.3925 59.6868 37.2383H62.5747C62.5527 36.4259 61.9159 35.914 61.1253 35.914ZM64.0131 38.9634C63.6837 40.0985 62.6735 41 61.1692 41C59.4014 41 58.1166 39.7535 58.1166 37.817C58.1166 35.8694 59.3684 34.6341 61.1692 34.6341C62.9261 34.6341 64.1668 35.8472 64.1668 37.6835C64.1668 37.8838 64.1559 38.0841 64.1229 38.2845H59.6759C59.7527 39.1971 60.3676 39.709 61.1363 39.709C61.7951 39.709 62.1574 39.3751 62.3551 38.9634H64.0131Z" fill="white"/>
<path d="M66.8262 37.8282V40.8998H65.2889V34.7343H66.8262V35.6914C67.2105 35.057 67.8473 34.6452 68.6928 34.6452V36.2812H68.2865C67.3752 36.2812 66.8262 36.6373 66.8262 37.8282Z" fill="white"/>
<path d="M73.2639 33.0315C74.9769 33.0315 76.3384 33.9107 76.8326 35.4688H75.0647C74.7133 34.8122 74.0765 34.4672 73.2639 34.4672C71.8914 34.4672 70.9361 35.4577 70.9361 37.0046C70.9361 38.585 71.9024 39.5643 73.3298 39.5643C74.5157 39.5643 75.2733 38.8743 75.5039 37.7725H72.8686V36.5817H77.0192V37.9395C76.7118 39.5198 75.3173 40.9666 73.2749 40.9666C71.0459 40.9666 69.3549 39.3306 69.3549 37.0046C69.3549 34.6786 71.0459 33.0315 73.2639 33.0315Z" fill="white"/>
<path d="M78.1565 40.8998V34.7343H79.6938V40.8998H78.1565ZM78.9362 33.9997C78.3871 33.9997 77.9918 33.5991 77.9918 33.0871C77.9918 32.5752 78.3871 32.1745 78.9362 32.1745C79.4742 32.1745 79.8805 32.5752 79.8805 33.0871C79.8805 33.5991 79.4742 33.9997 78.9362 33.9997Z" fill="white"/>
<path d="M80.5648 34.7343H82.2118L83.7491 39.4642L85.2863 34.7343H86.9224L84.6714 40.8998H82.8048L80.5648 34.7343Z" fill="white"/>
<path d="M90.3992 35.914C89.6635 35.914 89.0815 36.3925 88.9607 37.2383H91.8486C91.8266 36.4259 91.1898 35.914 90.3992 35.914ZM93.287 38.9634C92.9576 40.0985 91.9474 41 90.4431 41C88.6752 41 87.3905 39.7535 87.3905 37.817C87.3905 35.8694 88.6423 34.6341 90.4431 34.6341C92.2 34.6341 93.4407 35.8472 93.4407 37.6835C93.4407 37.8838 93.4298 38.0841 93.3968 38.2845H88.9498C89.0266 39.1971 89.6415 39.709 90.4102 39.709C91.069 39.709 91.4313 39.3751 91.629 38.9634H93.287Z" fill="white"/>
<path d="M96.1001 37.8282V40.8998H94.5628V34.7343H96.1001V35.6914C96.4844 35.057 97.1212 34.6452 97.9667 34.6452V36.2812H97.5604C96.6491 36.2812 96.1001 36.6373 96.1001 37.8282Z" fill="white"/>
</svg>
