<svg width="168" height="70" viewBox="0 0 168 70" fill="none" xmlns="http://www.w3.org/2000/svg">
<path d="M7.52941 5.70033H160.471C161.51 5.70033 162.353 6.55103 162.353 7.60043V48.4528H168V7.60043C168 3.40283 164.629 0 160.471 0H7.52941C3.37103 0 0 3.40283 0 7.60044V62.2286C0 66.4262 3.37103 69.829 7.52941 69.829H43.2941V64.1287H7.52941C6.48982 64.1287 5.64706 63.278 5.64706 62.2286V7.60044C5.64706 6.55103 6.48982 5.70033 7.52941 5.70033Z" fill="#2F2B77"/>
<path d="M53.0635 69.829V56.5662H56.0565L60.2353 66.4278L64.4141 56.5662H67.3882V69.829H64.7529V61.2025L61.2329 69.829H59.2376L55.6988 61.2025V69.829H53.0635Z" fill="#2F2B77"/>
<path d="M69.316 64.5277C69.316 61.2405 71.4243 59.1314 74.0784 59.1314C75.7537 59.1314 76.9019 59.9294 77.5231 60.8035V59.3024H80.1772V69.829H77.5231V68.2899C76.9019 69.202 75.716 70 74.0596 70C71.4243 70 69.316 67.8149 69.316 64.5277ZM77.5231 64.5657C77.5231 62.5706 76.2054 61.4685 74.756 61.4685C73.3443 61.4685 72.0078 62.5326 72.0078 64.5277C72.0078 66.5228 73.3443 67.6629 74.756 67.6629C76.2054 67.6629 77.5231 66.5608 77.5231 64.5657Z" fill="#2F2B77"/>
<path d="M90.8452 66.8268C90.8452 68.6319 89.2828 70 86.7416 70C84.1252 70 82.2993 68.4609 82.1863 66.5038H84.8404C84.9346 67.3018 85.6687 67.9099 86.7228 67.9099C87.7581 67.9099 88.3228 67.4349 88.3228 66.8268C88.3228 64.9457 82.431 66.1428 82.431 62.2856C82.431 60.5375 83.9746 59.1314 86.5534 59.1314C89.0757 59.1314 90.6004 60.5185 90.751 62.6086H88.2287C88.1534 61.7915 87.5134 61.2405 86.4781 61.2405C85.4993 61.2405 84.991 61.6395 84.991 62.2476C84.991 64.1667 90.7699 62.9696 90.8452 66.8268Z" fill="#2F2B77"/>
<path d="M93.4225 66.5608V61.4875H92.1801V59.3024H93.4225V56.6992H96.0766V59.3024H98.4107V61.4875H96.0766V66.5798C96.0766 67.2828 96.359 67.5869 97.1872 67.5869H98.4107V69.829H96.7543C94.759 69.829 93.4225 68.9739 93.4225 66.5608Z" fill="#2F2B77"/>
<path d="M104.786 61.3165C103.525 61.3165 102.527 62.1335 102.32 63.5776H107.271C107.233 62.1906 106.141 61.3165 104.786 61.3165ZM109.737 66.5228C109.172 68.4609 107.44 70 104.861 70C101.831 70 99.6285 67.8719 99.6285 64.5657C99.6285 61.2405 101.774 59.1314 104.861 59.1314C107.873 59.1314 110 61.2025 110 64.3377C110 64.6797 109.981 65.0217 109.925 65.3637H102.301C102.433 66.9218 103.487 67.7959 104.805 67.7959C105.934 67.7959 106.556 67.2258 106.894 66.5228H109.737Z" fill="#2F2B77"/>
<path d="M114.559 64.5847V69.829H111.924V59.3024H114.559V60.9365C115.218 59.8534 116.31 59.1504 117.759 59.1504V61.9435H117.063C115.5 61.9435 114.559 62.5516 114.559 64.5847Z" fill="#2F2B77"/>
<path d="M125.595 56.3952C128.532 56.3952 130.866 57.8963 131.713 60.5565H128.682C128.08 59.4354 126.988 58.8464 125.595 58.8464C123.242 58.8464 121.605 60.5375 121.605 63.1786C121.605 65.8768 123.261 67.5489 125.708 67.5489C127.741 67.5489 129.04 66.3708 129.435 64.4897H124.918V62.4566H132.033V64.7747C131.506 67.4729 129.115 69.943 125.614 69.943C121.793 69.943 118.894 67.1498 118.894 63.1786C118.894 59.2074 121.793 56.3952 125.595 56.3952Z" fill="#2F2B77"/>
<path d="M133.983 69.829V59.3024H136.618V69.829H133.983ZM135.319 58.0483C134.378 58.0483 133.7 57.3643 133.7 56.4902C133.7 55.6162 134.378 54.9321 135.319 54.9321C136.241 54.9321 136.938 55.6162 136.938 56.4902C136.938 57.3643 136.241 58.0483 135.319 58.0483Z" fill="#2F2B77"/>
<path d="M138.111 59.3024H140.935L143.57 67.3778L146.205 59.3024H149.01L145.151 69.829H141.951L138.111 59.3024Z" fill="#2F2B77"/>
<path d="M154.97 61.3165C153.709 61.3165 152.711 62.1335 152.504 63.5776H157.455C157.417 62.1906 156.325 61.3165 154.97 61.3165ZM159.921 66.5228C159.356 68.4609 157.624 70 155.045 70C152.015 70 149.812 67.8719 149.812 64.5657C149.812 61.2405 151.958 59.1314 155.045 59.1314C158.057 59.1314 160.184 61.2025 160.184 64.3377C160.184 64.6797 160.165 65.0217 160.109 65.3637H152.485C152.617 66.9218 153.671 67.7959 154.989 67.7959C156.118 67.7959 156.739 67.2258 157.078 66.5228H159.921Z" fill="#2F2B77"/>
<path d="M164.743 64.5847V69.829H162.108V59.3024H164.743V60.9365C165.402 59.8534 166.494 59.1504 167.943 59.1504V61.9435H167.246C165.684 61.9435 164.743 62.5516 164.743 64.5847Z" fill="#2F2B77"/>
</svg>
